<svg width="367" height="49" viewBox="0 0 367 49" fill="none" xmlns="http://www.w3.org/2000/svg">
<path d="M10.08 33.7947C12.84 33.7947 15.192 32.8107 16.752 30.9867L14.736 29.0667C13.512 30.4107 12 31.0587 10.248 31.0587C6.768 31.0587 4.248 28.6107 4.248 25.1547C4.248 21.6987 6.768 19.2507 10.248 19.2507C12 19.2507 13.512 19.8987 14.736 21.2187L16.752 19.3227C15.192 17.4987 12.84 16.5147 10.104 16.5147C4.944 16.5147 1.104 20.1387 1.104 25.1547C1.104 30.1707 4.944 33.7947 10.08 33.7947ZM29.1133 20.7387H17.1133V23.2827H21.6253V33.5547H24.6253V23.2827H29.1133V20.7387ZM36.4389 33.7227C40.4229 33.7227 43.2789 30.9867 43.2789 27.1467C43.2789 23.3067 40.4229 20.5947 36.4389 20.5947C32.5029 20.5947 29.6229 23.3067 29.6229 27.1467C29.6229 30.9867 32.5029 33.7227 36.4389 33.7227ZM36.4389 31.1547C34.2789 31.1547 32.6469 29.5947 32.6469 27.1467C32.6469 24.6987 34.2789 23.1387 36.4389 23.1387C38.6229 23.1387 40.2549 24.6987 40.2549 27.1467C40.2549 29.5947 38.6229 31.1547 36.4389 31.1547ZM53.3466 20.5947C51.5946 20.5947 50.1066 21.1947 49.0986 22.4187V20.7387H46.2426V38.2107H49.2426V31.9947C50.2746 33.1707 51.7146 33.7227 53.3466 33.7227C57.0906 33.7227 59.8506 31.1307 59.8506 27.1467C59.8506 23.1867 57.0906 20.5947 53.3466 20.5947ZM53.0106 31.1547C50.8506 31.1547 49.1946 29.5947 49.1946 27.1467C49.1946 24.6987 50.8506 23.1387 53.0106 23.1387C55.1706 23.1387 56.8026 24.6987 56.8026 27.1467C56.8026 29.5947 55.1706 31.1547 53.0106 31.1547ZM68.5483 33.7227C72.5323 33.7227 75.3883 30.9867 75.3883 27.1467C75.3883 23.3067 72.5323 20.5947 68.5483 20.5947C64.6123 20.5947 61.7323 23.3067 61.7323 27.1467C61.7323 30.9867 64.6123 33.7227 68.5483 33.7227ZM68.5483 31.1547C66.3883 31.1547 64.7563 29.5947 64.7563 27.1467C64.7563 24.6987 66.3883 23.1387 68.5483 23.1387C70.7323 23.1387 72.3643 24.6987 72.3643 27.1467C72.3643 29.5947 70.7323 31.1547 68.5483 31.1547ZM78.3519 33.5547H81.3519V28.4907H87.8079V33.5547H90.8079V20.7387H87.8079V25.9467H81.3519V20.7387H78.3519V33.5547ZM94.8285 33.5547H97.8285V28.4907H104.285V33.5547H107.285V20.7387H104.285V25.9467H97.8285V20.7387H94.8285V33.5547ZM111.305 33.5547H114.065L121.121 25.1067V33.5547H124.121V20.7387H121.385L114.305 29.1867V20.7387H111.305V33.5547ZM137.349 33.5547H140.877L135.909 26.9067L140.565 20.7387H137.349L133.557 25.9227H131.157V20.7387H128.157V33.5547H131.157V28.4187H133.485L137.349 33.5547ZM142.993 33.5547H145.753L152.809 25.1067V33.5547H155.809V20.7387H153.073L145.993 29.1867V20.7387H142.993V33.5547ZM166.477 33.5547H169.237L176.293 25.1067V33.5547H179.293V20.7387H176.557L169.477 29.1867V20.7387H166.477V33.5547ZM190.321 16.7547V33.5547H193.393V19.3947H202.105V33.5547H205.177V16.7547H190.321ZM214.355 20.5947C212.291 20.5947 210.299 21.1227 208.931 22.1787L210.107 24.3627C211.067 23.5707 212.555 23.0907 213.995 23.0907C216.131 23.0907 217.187 24.1227 217.187 25.8747V26.0667H213.875C209.987 26.0667 208.547 27.7467 208.547 29.8827C208.547 32.1147 210.395 33.7227 213.323 33.7227C215.243 33.7227 216.635 33.0987 217.355 31.9947V33.5547H220.187V26.0427C220.187 22.3467 218.051 20.5947 214.355 20.5947ZM213.947 31.5387C212.411 31.5387 211.499 30.8427 211.499 29.7627C211.499 28.8267 212.051 28.0587 214.091 28.0587H217.187V29.5467C216.683 30.8667 215.411 31.5387 213.947 31.5387ZM231.003 20.5947C229.251 20.5947 227.763 21.1947 226.755 22.4187V20.7387H223.899V38.2107H226.899V31.9947C227.931 33.1707 229.371 33.7227 231.003 33.7227C234.747 33.7227 237.507 31.1307 237.507 27.1467C237.507 23.1867 234.747 20.5947 231.003 20.5947ZM230.667 31.1547C228.507 31.1547 226.851 29.5947 226.851 27.1467C226.851 24.6987 228.507 23.1387 230.667 23.1387C232.827 23.1387 234.459 24.6987 234.459 27.1467C234.459 29.5947 232.827 31.1547 230.667 31.1547ZM250.176 20.7387H238.176V23.2827H242.688V33.5547H245.688V23.2827H250.176V20.7387ZM252.352 33.5547H255.352V28.4907H261.808V33.5547H264.808V20.7387H261.808V25.9467H255.352V20.7387H252.352V33.5547ZM280.829 27.2187C280.829 23.2107 278.093 20.5947 274.349 20.5947C270.533 20.5947 267.725 23.3307 267.725 27.1467C267.725 30.9627 270.509 33.7227 274.805 33.7227C277.013 33.7227 278.812 33.0027 279.965 31.6347L278.357 29.7867C277.445 30.7227 276.317 31.1787 274.877 31.1787C272.645 31.1787 271.085 29.9787 270.725 28.1067H280.781C280.805 27.8187 280.829 27.4587 280.829 27.2187ZM274.349 22.9947C276.317 22.9947 277.733 24.2667 277.973 26.1147H270.701C270.989 24.2427 272.405 22.9947 274.349 22.9947ZM291.214 20.5947C289.462 20.5947 287.974 21.1947 286.966 22.4187V20.7387H284.11V38.2107H287.11V31.9947C288.142 33.1707 289.582 33.7227 291.214 33.7227C294.958 33.7227 297.718 31.1307 297.718 27.1467C297.718 23.1867 294.958 20.5947 291.214 20.5947ZM290.878 31.1547C288.718 31.1547 287.062 29.5947 287.062 27.1467C287.062 24.6987 288.718 23.1387 290.878 23.1387C293.038 23.1387 294.67 24.6987 294.67 27.1467C294.67 29.5947 293.038 31.1547 290.878 31.1547ZM306.944 24.9627L303.704 24.9387V20.7387H300.704V33.5547L306.512 33.5787C310.016 33.6027 311.984 31.9947 311.984 29.1867C311.984 26.5227 310.232 24.9627 306.944 24.9627ZM313.64 33.5547H316.64V20.7387H313.64V33.5547ZM306.248 31.3707L303.704 31.3467V27.0027L306.248 27.0267C308.024 27.0507 308.96 27.6747 308.96 29.1387C308.96 30.6267 308 31.3947 306.248 31.3707Z" fill="white"/>
<path fill-rule="evenodd" clip-rule="evenodd" d="M301 12.5546L335.309 0V12.5546H301Z" fill="#FF6600"/>
</svg>
