<svg width="95" height="35" viewBox="0 0 95 35" fill="none" xmlns="http://www.w3.org/2000/svg">
<path d="M13.1219 16.6984H4.34108V20.9901H10.828V25.1339H4.34108V34.556H0V12.5546H13.1219V16.6984Z" fill="white"/>
<path d="M18.5977 29.7956C19.4116 30.6096 20.4229 31.0289 21.6562 31.0289C22.8648 31.0289 23.876 30.6096 24.7147 29.7956C25.5286 28.9817 25.9479 27.9457 25.9479 26.6878C25.9479 25.4299 25.5286 24.3939 24.7147 23.58C23.9007 22.766 22.8894 22.3467 21.6562 22.3467C20.4476 22.3467 19.4363 22.766 18.5977 23.58C17.8084 24.4186 17.4138 25.4545 17.4138 26.6878C17.4138 27.9211 17.8084 28.957 18.5977 29.7956ZM27.5512 32.6075C25.9479 34.2107 23.9994 35 21.6562 35C19.313 35 17.3398 34.2107 15.7612 32.6075C14.1579 31.0042 13.3687 29.0557 13.3687 26.7125C13.3687 24.3939 14.1579 22.4207 15.7612 20.8421C17.3644 19.2389 19.3376 18.4249 21.6562 18.4249C23.9747 18.4249 25.9479 19.2389 27.5512 20.8421C29.1544 22.4454 29.9684 24.4186 29.9684 26.7125C29.9684 29.0063 29.1544 30.9796 27.5512 32.6075Z" fill="white"/>
<path d="M40.8458 18.4003C42.5723 18.4003 44.0029 18.9676 45.0882 20.1269C46.2228 21.3108 46.7901 22.8894 46.7901 24.9119V34.556H42.745V25.4299C42.745 24.3693 42.4737 23.5553 41.9064 23.0127C41.3391 22.4701 40.5991 22.1987 39.6372 22.1987C38.5765 22.1987 37.7379 22.5194 37.1213 23.1607C36.5047 23.802 36.184 24.7639 36.184 26.0958V34.556H32.1389V18.8443H36.184V20.6202C37.146 19.1402 38.6999 18.4003 40.8458 18.4003Z" fill="white"/>
<path d="M57.5935 22.7414H54.0417V29.2777C54.0417 29.697 54.1157 30.0176 54.2637 30.2396C54.4117 30.4616 54.6337 30.6342 54.9296 30.7329C55.2256 30.8316 55.5956 30.9056 56.0396 30.9056C56.4835 30.9056 57.0015 30.9056 57.5688 30.8562V34.5314C56.1876 34.704 55.0036 34.704 54.0417 34.5807C53.0797 34.4327 52.2905 34.1614 51.6985 33.7421C51.1065 33.3228 50.6626 32.7308 50.3912 31.9908C50.1199 31.2509 49.9719 30.3383 49.9719 29.2777V16.2051L54.017 14.7252V18.8443H57.5688V22.7414H57.5935Z" fill="white"/>
<path d="M71.3072 25.1339C71.0852 24.0733 70.6166 23.2593 69.9013 22.7414C69.186 22.2234 68.372 21.9521 67.4101 21.9521C66.3248 21.9521 65.4122 22.2234 64.7216 22.7907C64.0063 23.3333 63.5376 24.1226 63.3157 25.1339H71.3072ZM63.8336 29.4997C64.5736 30.7082 65.8808 31.3249 67.7801 31.3249C69.334 31.3249 70.4932 30.8069 71.3072 29.7463L74.563 31.6209C73.0091 33.8654 70.7399 34.9753 67.7061 34.9753C65.1162 34.9753 63.0197 34.186 61.4658 32.6321C59.8872 31.0536 59.1226 29.0803 59.1226 26.6878C59.1226 24.3446 59.8872 22.3714 61.4411 20.7928C62.9703 19.1896 64.9682 18.4003 67.4101 18.4003C69.7286 18.4003 71.6278 19.1896 73.0831 20.7928C74.5877 22.3961 75.3523 24.3693 75.3523 26.6878C75.3523 26.9591 75.3276 27.2304 75.303 27.5018C75.2783 27.7484 75.2536 27.9951 75.2043 28.2664C71.2332 28.2664 67.2868 28.2664 63.3157 28.2664C63.439 28.6857 63.587 29.0803 63.8336 29.4997Z" fill="white"/>
<path fill-rule="evenodd" clip-rule="evenodd" d="M59.9119 12.5546L94.2212 0V12.5546H59.9119Z" fill="#FF6600"/>
</svg>
