<svg width="107" height="34" viewBox="0 0 107 34" fill="none" xmlns="http://www.w3.org/2000/svg">
<path d="M10.128 33.7946C15.336 33.7946 19.176 30.1466 19.176 25.1546C19.176 20.1626 15.336 16.5146 10.128 16.5146C4.92 16.5146 1.08 20.1866 1.08 25.1546C1.08 30.1226 4.92 33.7946 10.128 33.7946ZM10.128 31.0586C6.744 31.0586 4.224 28.5866 4.224 25.1546C4.224 21.7226 6.744 19.2506 10.128 19.2506C13.512 19.2506 16.032 21.7226 16.032 25.1546C16.032 28.5866 13.512 31.0586 10.128 31.0586ZM28.9223 33.5546H31.9223V28.4906H38.3783V33.5546H41.3783V20.7386H38.3783V25.9466H31.9223V20.7386H28.9223V33.5546ZM50.1748 20.5946C48.1108 20.5946 46.1188 21.1226 44.7508 22.1786L45.9268 24.3626C46.8868 23.5706 48.3748 23.0906 49.8148 23.0906C51.9508 23.0906 53.0068 24.1226 53.0068 25.8746V26.0666H49.6948C45.8068 26.0666 44.3668 27.7466 44.3668 29.8826C44.3668 32.1146 46.2148 33.7226 49.1428 33.7226C51.0628 33.7226 52.4548 33.0986 53.1748 31.9946V33.5546H56.0068V26.0426C56.0068 22.3466 53.8708 20.5946 50.1748 20.5946ZM49.7668 31.5386C48.2308 31.5386 47.3188 30.8426 47.3188 29.7626C47.3188 28.8266 47.8708 28.0586 49.9108 28.0586H53.0068V29.5466C52.5028 30.8666 51.2308 31.5386 49.7668 31.5386ZM65.5511 33.7226C68.0471 33.7226 70.0391 32.6426 71.0231 30.7226L68.7191 29.3786C67.9511 30.6026 66.7991 31.1546 65.5271 31.1546C63.3191 31.1546 61.6391 29.6426 61.6391 27.1466C61.6391 24.6746 63.3191 23.1386 65.5271 23.1386C66.7991 23.1386 67.9511 23.6906 68.7191 24.9146L71.0231 23.5706C70.0391 21.6266 68.0471 20.5946 65.5511 20.5946C61.4951 20.5946 58.6151 23.3066 58.6151 27.1466C58.6151 30.9866 61.4951 33.7226 65.5511 33.7226Z" fill="white"/>
<path fill-rule="evenodd" clip-rule="evenodd" d="M59 12.5546L93.3094 0V12.5546H59Z" fill="#FF6600"/>
</svg>
