<svg width="249" height="42" viewBox="0 0 249 42" fill="none" xmlns="http://www.w3.org/2000/svg">
<path d="M14.16 16.7546V23.6906H5.472V16.7546H2.352V33.5546H5.472V26.3546H14.16V33.5546H17.28V16.7546H14.16ZM26.4326 20.5946C24.3686 20.5946 22.3766 21.1226 21.0086 22.1786L22.1846 24.3626C23.1446 23.5706 24.6326 23.0906 26.0726 23.0906C28.2086 23.0906 29.2646 24.1226 29.2646 25.8746V26.0666H25.9526C22.0646 26.0666 20.6246 27.7466 20.6246 29.8826C20.6246 32.1146 22.4726 33.7226 25.4006 33.7226C27.3206 33.7226 28.7126 33.0986 29.4326 31.9946V33.5546H32.2646V26.0426C32.2646 22.3466 30.1286 20.5946 26.4326 20.5946ZM26.0246 31.5386C24.4886 31.5386 23.5766 30.8426 23.5766 29.7626C23.5766 28.8266 24.1286 28.0586 26.1686 28.0586H29.2646V29.5466C28.7606 30.8666 27.4886 31.5386 26.0246 31.5386ZM51.8649 20.7386V31.0106H46.9449V20.7386H43.9449V31.0106H38.9769V20.7386H35.9769V33.5546H54.8649V20.7386H51.8649ZM58.8988 33.5546H61.6588L68.7148 25.1066V33.5546H71.7148V20.7386H68.9788L61.8988 29.1866V20.7386H58.8988V33.5546ZM94.5032 31.0106V20.7386H91.5032V31.0106H85.3832V20.7386H82.3832V33.5546H93.6392V36.5066H96.4472V31.0106H94.5032ZM111.118 27.2186C111.118 23.2106 108.382 20.5946 104.638 20.5946C100.822 20.5946 98.0136 23.3306 98.0136 27.1466C98.0136 30.9626 100.798 33.7226 105.094 33.7226C107.302 33.7226 109.102 33.0026 110.254 31.6346L108.646 29.7866C107.734 30.7226 106.606 31.1786 105.166 31.1786C102.934 31.1786 101.374 29.9786 101.014 28.1066H111.07C111.094 27.8186 111.118 27.4586 111.118 27.2186ZM104.638 22.9946C106.606 22.9946 108.022 24.2666 108.262 26.1146H100.99C101.278 24.2426 102.694 22.9946 104.638 22.9946ZM114.399 33.5546H117.399V28.4906H123.855V33.5546H126.855V20.7386H123.855V25.9466H117.399V20.7386H114.399V33.5546ZM130.875 33.5546H133.875V28.4906H140.331V33.5546H143.331V20.7386H140.331V25.9466H133.875V20.7386H130.875V33.5546ZM153.064 33.7226C157.048 33.7226 159.904 30.9866 159.904 27.1466C159.904 23.3066 157.048 20.5946 153.064 20.5946C149.128 20.5946 146.248 23.3066 146.248 27.1466C146.248 30.9866 149.128 33.7226 153.064 33.7226ZM153.064 31.1546C150.904 31.1546 149.272 29.5946 149.272 27.1466C149.272 24.6986 150.904 23.1386 153.064 23.1386C155.248 23.1386 156.88 24.6986 156.88 27.1466C156.88 29.5946 155.248 31.1546 153.064 31.1546ZM168.7 33.7226C171.196 33.7226 173.188 32.6426 174.172 30.7226L171.868 29.3786C171.1 30.6026 169.948 31.1546 168.676 31.1546C166.468 31.1546 164.788 29.6426 164.788 27.1466C164.788 24.6746 166.468 23.1386 168.676 23.1386C169.948 23.1386 171.1 23.6906 171.868 24.9146L174.172 23.5706C173.188 21.6266 171.196 20.5946 168.7 20.5946C164.644 20.5946 161.764 23.3066 161.764 27.1466C161.764 30.9866 164.644 33.7226 168.7 33.7226ZM186.848 20.7386H174.848V23.2826H179.36V33.5546H182.36V23.2826H186.848V20.7386ZM189.024 33.5546H191.784L198.84 25.1066V33.5546H201.84V20.7386H199.104L192.024 29.1866V20.7386H189.024V33.5546Z" fill="white"/>
<path fill-rule="evenodd" clip-rule="evenodd" d="M190 12.5546L224.309 0V12.5546H190Z" fill="#FF6600"/>
</svg>
