<svg width="234" height="54" viewBox="0 0 234 54" fill="none" xmlns="http://www.w3.org/2000/svg">
<path d="M14.16 16.7546V23.6906H5.472V16.7546H2.352V33.5546H5.472V26.3546H14.16V33.5546H17.28V16.7546H14.16ZM26.4326 20.5946C24.3686 20.5946 22.3766 21.1226 21.0086 22.1786L22.1846 24.3626C23.1446 23.5706 24.6326 23.0906 26.0726 23.0906C28.2086 23.0906 29.2646 24.1226 29.2646 25.8746V26.0666H25.9526C22.0646 26.0666 20.6246 27.7466 20.6246 29.8826C20.6246 32.1146 22.4726 33.7226 25.4006 33.7226C27.3206 33.7226 28.7126 33.0986 29.4326 31.9946V33.5546H32.2646V26.0426C32.2646 22.3466 30.1286 20.5946 26.4326 20.5946ZM26.0246 31.5386C24.4886 31.5386 23.5766 30.8426 23.5766 29.7626C23.5766 28.8266 24.1286 28.0586 26.1686 28.0586H29.2646V29.5466C28.7606 30.8666 27.4886 31.5386 26.0246 31.5386ZM51.8649 20.7386V31.0106H46.9449V20.7386H43.9449V31.0106H38.9769V20.7386H35.9769V33.5546H54.8649V20.7386H51.8649ZM63.6748 20.5946C61.6108 20.5946 59.6188 21.1226 58.2508 22.1786L59.4268 24.3626C60.3868 23.5706 61.8748 23.0906 63.3148 23.0906C65.4508 23.0906 66.5068 24.1226 66.5068 25.8746V26.0666H63.1948C59.3068 26.0666 57.8668 27.7466 57.8668 29.8826C57.8668 32.1146 59.7148 33.7226 62.6428 33.7226C64.5628 33.7226 65.9548 33.0986 66.6748 31.9946V33.5546H69.5068V26.0426C69.5068 22.3466 67.3708 20.5946 63.6748 20.5946ZM63.2668 31.5386C61.7308 31.5386 60.8188 30.8426 60.8188 29.7626C60.8188 28.8266 61.3708 28.0586 63.4108 28.0586H66.5068V29.5466C66.0028 30.8666 64.7308 31.5386 63.2668 31.5386ZM89.0439 33.5546H92.5719L87.6039 26.9066L92.2599 20.7386H89.0439L85.2519 25.9226H82.8519V20.7386H79.8519V33.5546H82.8519V28.4186H85.1799L89.0439 33.5546ZM99.978 33.7226C103.962 33.7226 106.818 30.9866 106.818 27.1466C106.818 23.3066 103.962 20.5946 99.978 20.5946C96.042 20.5946 93.162 23.3066 93.162 27.1466C93.162 30.9866 96.042 33.7226 99.978 33.7226ZM99.978 31.1546C97.818 31.1546 96.186 29.5946 96.186 27.1466C96.186 24.6986 97.818 23.1386 99.978 23.1386C102.162 23.1386 103.794 24.6986 103.794 27.1466C103.794 29.5946 102.162 31.1546 99.978 31.1546ZM125.094 33.5546L125.07 20.7386H122.262L117.486 28.7546L112.926 20.7386H109.782V33.5546H112.518V25.0346L116.766 32.2106H118.062L122.382 25.0586V33.5546H125.094ZM133.894 20.5946C131.83 20.5946 129.838 21.1226 128.47 22.1786L129.646 24.3626C130.606 23.5706 132.094 23.0906 133.534 23.0906C135.67 23.0906 136.726 24.1226 136.726 25.8746V26.0666H133.414C129.526 26.0666 128.086 27.7466 128.086 29.8826C128.086 32.1146 129.934 33.7226 132.862 33.7226C134.782 33.7226 136.174 33.0986 136.894 31.9946V33.5546H139.726V26.0426C139.726 22.3466 137.59 20.5946 133.894 20.5946ZM133.486 31.5386C131.95 31.5386 131.038 30.8426 131.038 29.7626C131.038 28.8266 131.59 28.0586 133.63 28.0586H136.726V29.5466C136.222 30.8666 134.95 31.5386 133.486 31.5386ZM143.438 33.5546H146.438V28.4906H152.894V33.5546H155.894V20.7386H152.894V25.9466H146.438V20.7386H143.438V33.5546ZM171.698 31.0106V20.7386H161.138L160.97 25.1306C160.826 28.1306 160.514 30.9386 158.714 31.0106H158.114V36.4106H160.898V33.5546H170.786V36.4106H173.594V31.0106H171.698ZM163.706 25.3466L163.778 23.2826H168.698V31.0106H162.386C163.418 30.0266 163.61 27.7466 163.706 25.3466ZM181.05 20.5946C178.986 20.5946 176.994 21.1226 175.626 22.1786L176.802 24.3626C177.762 23.5706 179.25 23.0906 180.69 23.0906C182.826 23.0906 183.882 24.1226 183.882 25.8746V26.0666H180.57C176.682 26.0666 175.242 27.7466 175.242 29.8826C175.242 32.1146 177.09 33.7226 180.018 33.7226C181.938 33.7226 183.33 33.0986 184.05 31.9946V33.5546H186.882V26.0426C186.882 22.3466 184.746 20.5946 181.05 20.5946ZM180.642 31.5386C179.106 31.5386 178.194 30.8426 178.194 29.7626C178.194 28.8266 178.746 28.0586 180.786 28.0586H183.882V29.5466C183.378 30.8666 182.106 31.5386 180.642 31.5386Z" fill="white"/>
<path fill-rule="evenodd" clip-rule="evenodd" d="M175 12.5546L209.309 0V12.5546H175Z" fill="#FF6600"/>
</svg>
