<svg width="1130" height="69" viewBox="0 0 1130 69" fill="none" xmlns="http://www.w3.org/2000/svg">
<path d="M3.168 41.5547H13.248C18.912 41.5547 22.112 39.0587 22.112 34.6107C22.112 30.3867 19.264 28.0827 13.888 28.0827H7.264V22.5787H20.608V19.1547H3.168V41.5547ZM7.264 38.3547V31.2827H13.024C16.288 31.2827 17.92 32.4027 17.92 34.7387C17.92 37.1067 16.224 38.3547 13.024 38.3547H7.264ZM27.477 24.4667L27.189 31.0587C26.997 34.6107 26.901 38.2587 24.277 38.2587C24.053 38.2587 23.797 38.2267 23.509 38.1627L23.317 41.5227C24.149 41.7467 24.885 41.8747 25.525 41.8747C29.557 41.8747 30.453 37.3307 30.741 31.2507L30.901 27.8587H37.301V41.5547H41.301V24.4667H27.477ZM54.304 41.7787C59.616 41.7787 63.424 38.1307 63.424 33.0107C63.424 27.8907 59.616 24.2747 54.304 24.2747C49.056 24.2747 45.216 27.8907 45.216 33.0107C45.216 38.1307 49.056 41.7787 54.304 41.7787ZM54.304 38.3547C51.424 38.3547 49.248 36.2747 49.248 33.0107C49.248 29.7467 51.424 27.6667 54.304 27.6667C57.216 27.6667 59.392 29.7467 59.392 33.0107C59.392 36.2747 57.216 38.3547 54.304 38.3547ZM80.4955 24.4667H67.3755V41.5547H71.3755V27.8587H80.4955V24.4667ZM104.507 41.5547H109.211L102.587 32.6907L108.795 24.4667H104.507L99.4505 31.3787H96.2505V24.4667H92.2505V41.5547H96.2505V34.7067H99.3545L104.507 41.5547ZM119.085 41.7787C124.397 41.7787 128.205 38.1307 128.205 33.0107C128.205 27.8907 124.397 24.2747 119.085 24.2747C113.837 24.2747 109.997 27.8907 109.997 33.0107C109.997 38.1307 113.837 41.7787 119.085 41.7787ZM119.085 38.3547C116.205 38.3547 114.029 36.2747 114.029 33.0107C114.029 29.7467 116.205 27.6667 119.085 27.6667C121.997 27.6667 124.173 29.7467 124.173 33.0107C124.173 36.2747 121.997 38.3547 119.085 38.3547ZM152.573 41.5547L152.541 24.4667H148.797L142.429 35.1547L136.349 24.4667H132.157V41.5547H135.805V30.1947L141.469 39.7627H143.197L148.957 30.2267V41.5547H152.573ZM157.938 24.4667V41.5547H161.938V27.8587H170.354V41.5547H174.322V24.4667H157.938ZM186.087 24.2747C183.335 24.2747 180.679 24.9787 178.855 26.3867L180.423 29.2987C181.703 28.2427 183.687 27.6027 185.607 27.6027C188.455 27.6027 189.863 28.9787 189.863 31.3147V31.5707H185.447C180.263 31.5707 178.343 33.8107 178.343 36.6587C178.343 39.6347 180.807 41.7787 184.711 41.7787C187.271 41.7787 189.127 40.9467 190.087 39.4747V41.5547H193.863V31.5387C193.863 26.6107 191.015 24.2747 186.087 24.2747ZM185.543 38.8667C183.495 38.8667 182.279 37.9387 182.279 36.4987C182.279 35.2507 183.015 34.2267 185.735 34.2267H189.863V36.2107C189.191 37.9707 187.495 38.8667 185.543 38.8667ZM198.813 41.5547H202.813V34.8027H211.421V41.5547H215.421V24.4667H211.421V31.4107H202.813V24.4667H198.813V41.5547ZM220.782 41.5547H224.462L233.87 30.2907V41.5547H237.87V24.4667H234.222L224.782 35.7307V24.4667H220.782V41.5547ZM243.251 41.5547H246.931L256.339 30.2907V41.5547H260.339V24.4667H256.691L247.251 35.7307V24.4667H243.251V41.5547Z" fill="white"/>
<path fill-rule="evenodd" clip-rule="evenodd" d="M243 12.5546L277.309 0V12.5546H243Z" fill="#FF6600"/>
</svg>
